<svg width="23" height="21" viewBox="0 0 23 21" fill="none" xmlns="http://www.w3.org/2000/svg">
<path d="M11.0105 18.6365C15.8558 15.3147 18.3971 12.2928 19.4392 9.76366C21.3962 5.01291 18.0641 2 14.7778 2C13.3756 2 11.9813 2.54898 11.0105 3.74559C10.0395 2.54873 8.64557 2 7.24308 2C3.95706 2 0.624878 5.01333 2.58168 9.76366C3.62386 12.2928 6.16507 15.3147 11.0105 18.6365ZM11.0105 20.6365C10.6154 20.6365 10.2204 20.5197 9.87959 20.2861C5.13987 17.0367 2.06235 13.7529 0.732516 10.5256C-0.373284 7.84119 -0.224294 5.23099 1.15195 3.17563C2.46355 1.21683 4.79753 0 7.24308 0C8.61323 0 9.91515 0.385814 11.0105 1.09276C12.1058 0.385817 13.4077 0 14.7778 0C17.2236 0 19.5576 1.21678 20.8691 3.17549C22.2453 5.23077 22.3943 7.84102 21.2885 10.5254C19.9586 13.7529 16.881 17.0367 12.1413 20.2861C11.8006 20.5197 11.4055 20.6365 11.0105 20.6365Z" fill="#F0240D"/>
</svg>
