<svg width="201" height="227" viewBox="0 0 201 227" fill="none" xmlns="http://www.w3.org/2000/svg">
<path d="M183.435 217.285L0 219.348L32.507 39.7165L161.763 47.101L183.435 217.285Z" fill="#8BC6FF"/>
<path d="M200.462 226.567H29.1528L30.1154 219.01L183.435 217.284L162.515 53.0116L183.435 50.7682L200.462 226.567Z" fill="#0051FF" fill-opacity="0.6"/>
<path d="M30.1162 219.01L49.7152 65.1034L162.516 53.0122L183.436 217.285L30.1162 219.01Z" fill="#0051FF" fill-opacity="0.6"/>
<path d="M141.242 34.874H130.282C130.282 21.6846 119.548 10.9559 106.351 10.9559C93.1568 10.9559 82.4207 21.6846 82.4207 34.874H71.46C71.46 15.6452 87.1125 8.01086e-05 106.351 8.01086e-05C125.59 8.01086e-05 141.242 15.6452 141.242 34.874Z" fill="#5982DA"/>
</svg>
